<svg width="16" height="16" viewBox="0 0 16 16" fill="none" xmlns="http://www.w3.org/2000/svg">
<path d="M7.99837 9.23437C7.65593 9.23437 7.36481 9.11398 7.12504 8.8732C6.88526 8.63254 6.76537 8.34093 6.76537 7.99837C6.76537 7.65593 6.88576 7.36481 7.12654 7.12504C7.3672 6.88526 7.65881 6.76537 8.00137 6.76537C8.34381 6.76537 8.63493 6.88576 8.8747 7.12654C9.11448 7.3672 9.23437 7.65881 9.23437 8.00137C9.23437 8.34381 9.11398 8.63493 8.8732 8.8747C8.63254 9.11448 8.34093 9.23437 7.99837 9.23437ZM7.43204 4.6937V2.47604C7.43204 2.3157 7.48693 2.18098 7.5967 2.07187C7.70637 1.96276 7.84176 1.9082 8.00287 1.9082C8.16387 1.9082 8.29826 1.96276 8.40604 2.07187C8.51381 2.18098 8.5677 2.3157 8.5677 2.47604V4.6937C8.5677 4.85659 8.51281 4.99259 8.40304 5.1017C8.29337 5.21081 8.15798 5.26537 7.99687 5.26537C7.83587 5.26537 7.70148 5.21081 7.5937 5.1017C7.48593 4.99259 7.43204 4.85659 7.43204 4.6937ZM7.43204 13.5237V11.302C7.43204 11.1418 7.48693 11.0071 7.5967 10.898C7.70637 10.7889 7.84176 10.7344 8.00287 10.7344C8.16387 10.7344 8.29826 10.7889 8.40604 10.898C8.51381 11.0071 8.5677 11.1418 8.5677 11.302V13.5237C8.5677 13.684 8.51281 13.8188 8.40304 13.9279C8.29337 14.037 8.15798 14.0915 7.99687 14.0915C7.83587 14.0915 7.70148 14.037 7.5937 13.9279C7.48593 13.8188 7.43204 13.684 7.43204 13.5237ZM11.306 7.43204H13.5237C13.684 7.43204 13.8188 7.48693 13.9279 7.5967C14.037 7.70637 14.0915 7.84176 14.0915 8.00287C14.0915 8.16387 14.037 8.29826 13.9279 8.40604C13.8188 8.51381 13.684 8.5677 13.5237 8.5677H11.306C11.1431 8.5677 11.0071 8.51281 10.898 8.40304C10.7889 8.29337 10.7344 8.15798 10.7344 7.99687C10.7344 7.83587 10.7889 7.70148 10.898 7.5937C11.0071 7.48593 11.1431 7.43204 11.306 7.43204ZM2.47604 7.43204H4.6977C4.85793 7.43204 4.99259 7.48693 5.1017 7.5967C5.21081 7.70637 5.26537 7.84176 5.26537 8.00287C5.26537 8.16387 5.21081 8.29826 5.1017 8.40604C4.99259 8.51381 4.85793 8.5677 4.6977 8.5677H2.47604C2.3157 8.5677 2.18098 8.51281 2.07187 8.40304C1.96276 8.29337 1.9082 8.15798 1.9082 7.99687C1.9082 7.83587 1.96276 7.70148 2.07187 7.5937C2.18098 7.48593 2.3157 7.43204 2.47604 7.43204Z" fill="#00D2E3"/>
</svg>
