<svg width="120" height="120" viewBox="0 0 120 120" fill="none" xmlns="http://www.w3.org/2000/svg">
<g clip-path="url(#clip0_10437_11843)">
<path d="M117.53 99.8867H3.90143V104.827H117.53V99.8867Z" fill="#00D2E3"/>
<path d="M115.809 22.0597C107.557 17.25 98.1801 19.8049 91.7683 22.7948L72.6545 31.7078L39.7813 15.1738L20.2044 16.0149L47.3499 43.5347L30.05 51.7528L12.051 44.9027L0 50.5219L10.8908 64.0459C9.74018 65.4186 8.69751 67.3512 9.64409 69.3812C10.8804 72.0322 14.5346 73.3684 20.5285 73.3681C21.7576 73.3681 23.0853 73.312 24.5104 73.1994C31.09 72.6797 38.2234 71.0002 42.6838 68.9203L111.008 37.0601C116.909 34.3081 119.849 31.4185 119.995 28.2255C120.07 26.5695 119.405 24.1549 115.809 22.0597ZM108.92 32.5824L40.5957 64.4429C36.7956 66.215 30.5567 67.6998 24.7013 68.2255C18.7166 68.7627 15.5167 68.0881 14.4501 67.5153C14.6697 67.2147 15.0797 66.7424 15.8363 66.0764L17.6109 64.5145L7.80232 52.3345L12.2452 50.2625L30.2634 57.1205L55.7481 45.0144L31.5403 20.4726L38.709 20.1646L72.5725 37.1962L93.8556 27.272C101.629 23.6475 108.177 23.3304 113.321 26.3277L113.322 26.3279C114.618 27.0831 115.071 27.7419 115.059 28.0003C115.058 28.018 114.91 29.7897 108.92 32.5824Z" fill="#00D2E3"/>
</g>
<defs>
<clipPath id="clip0_10437_11843">
<rect width="120" height="120" fill="white"/>
</clipPath>
</defs>
</svg>
