<svg width="120" height="70" viewBox="0 0 120 70" fill="none" xmlns="http://www.w3.org/2000/svg">
<g clip-path="url(#clip0_10437_11624)">
<path d="M74.2315 40.7351C74.9027 41.6209 75.2411 42.8 75.2411 44.2162C75.2411 45.6323 74.8576 46.7607 74.0904 47.8158C73.3459 48.8708 72.2685 49.6663 70.8527 50.2136C69.9389 50.5747 68.8841 50.7891 67.66 50.9076V55.2293C67.66 56.211 66.8422 57.0291 65.8607 57.0291C64.8792 57.0291 64.0613 56.211 64.0613 55.2293V50.885C62.8598 50.7665 61.6866 50.5013 60.581 50.1177C59.1652 49.6155 57.9863 48.9893 57.1232 48.2445C56.452 47.6691 56.3053 46.7099 56.7622 45.9426C57.0274 45.5082 57.4335 45.2204 57.9355 45.1245C58.415 45.0286 58.9452 45.1471 59.3513 45.4348C60 45.9144 60.8179 46.3488 61.7994 46.7551C63.0234 47.2572 64.4167 47.4998 65.9509 47.4998C68.5908 47.4998 69.8374 46.9469 70.4127 46.5181C71.1798 45.92 71.5634 45.1471 71.5634 44.2162C71.5634 43.5673 71.3942 43.0652 71.0839 42.7267C70.7004 42.3205 70.1476 41.9819 69.4763 41.745C68.6867 41.4572 67.7954 41.2429 66.8365 41.0736C65.8043 40.8818 64.7269 40.6899 63.6664 40.4473C62.5383 40.2047 61.5061 39.8493 60.5923 39.4148C59.56 38.9353 58.7196 38.2639 58.0934 37.3725C57.4222 36.4585 57.0838 35.2849 57.0838 33.8462C57.0838 32.5993 57.4448 31.4484 58.116 30.4159C58.7873 29.3834 59.8195 28.5428 61.162 27.9221C61.9799 27.5385 62.9614 27.2959 64.0444 27.1548V22.8556C64.0444 21.8739 64.8623 21.0559 65.8438 21.0559C66.8252 21.0559 67.6431 21.8739 67.6431 22.8556V27.1774C68.5569 27.2733 69.4651 27.4651 70.3789 27.7303C71.5521 28.0914 72.5618 28.5484 73.3797 29.1013C74.1694 29.6542 74.412 30.7318 73.8592 31.5499C73.5941 31.9562 73.1879 32.2213 72.7085 32.3172C72.229 32.4132 71.7495 32.3172 71.366 32.0521C70.7399 31.6176 70.0235 31.2848 69.2282 31.0704C68.1959 30.7826 67.1185 30.6134 66.013 30.6134C64.0951 30.6134 62.6793 30.9745 61.884 31.6233C61.1394 32.2495 60.7784 32.9943 60.7784 33.8801C60.7784 34.574 60.9476 35.1269 61.2804 35.488C61.664 35.9225 62.1942 36.2779 62.8655 36.4979C63.6552 36.7857 64.5464 37.0001 65.5053 37.1919C66.515 37.3837 67.5698 37.5981 68.6246 37.8182C69.7302 38.0608 70.7624 38.3936 71.6706 38.7999C72.7254 39.2569 73.5659 39.9057 74.2145 40.7464L74.2315 40.7351ZM120 9.94116V68.1776C120 69.1876 119.182 70 118.178 70H13.5828C12.5731 70 11.7608 69.1819 11.7608 68.1776V61.8868H1.82194C0.812259 61.8868 0 61.0688 0 60.0645V1.82236C0 0.818087 0.8179 0 1.82194 0H106.417C107.427 0 108.239 0.818087 108.239 1.82236V8.11316H118.178C119.188 8.11316 120 8.93125 120 9.93552V9.94116ZM11.7608 58.2365V9.94116C11.7608 8.93125 12.5787 8.1188 13.5828 8.1188H104.59V3.656H3.64952V58.2421H11.7608V58.2365ZM116.35 11.7635H15.4104V66.3496H116.379V11.7635H116.356H116.35ZM18.6707 49.9823V28.114C18.6707 27.1041 19.4886 26.2916 20.4926 26.2916C25.4846 26.2916 29.5628 22.2125 29.5628 17.2193C29.5628 16.2094 30.3807 15.397 31.3848 15.397H100.41C101.42 15.397 102.232 16.215 102.232 17.2193C102.232 22.2125 106.31 26.2916 111.302 26.2916C112.312 26.2916 113.124 27.1097 113.124 28.114V49.9823C113.124 50.9922 112.306 51.8046 111.302 51.8046C106.31 51.8046 102.232 55.8838 102.232 60.8769C102.232 61.8868 101.414 62.6993 100.41 62.6993H31.3679C30.3582 62.6993 29.5459 61.8812 29.5459 60.8769C29.5459 55.8838 25.4677 51.8046 20.4757 51.8046C19.4942 51.8046 18.6763 50.9865 18.6763 49.9823H18.6707ZM78.4563 19.036C85.1067 23.2393 89.5177 30.6303 89.5177 39.0594C89.5177 47.4885 85.1011 54.8795 78.4563 59.0828H98.6895C99.4792 53.5367 103.896 49.119 109.441 48.3292V29.8461C103.873 29.0562 99.4792 24.6385 98.6895 19.0924H78.4563V19.0417V19.036ZM85.8964 39.0594C85.8964 28.0181 76.9221 19.036 65.8776 19.036C54.8331 19.036 45.8588 28.0124 45.8588 39.0594C45.8588 50.1064 54.8331 59.0828 65.8776 59.0828C76.9221 59.0828 85.8964 50.0782 85.8964 39.0594ZM22.2976 48.301C27.865 49.0908 32.2591 53.5085 33.0488 59.0546H53.2819C46.6316 54.8513 42.2205 47.4603 42.2205 39.0312C42.2205 30.6021 46.6372 23.2111 53.2819 19.0078H33.0488C32.2591 24.5539 27.8424 28.9715 22.2976 29.7614V48.2953V48.301Z" fill="#00D2E3"/>
</g>
<defs>
<clipPath id="clip0_10437_11624">
<rect width="120" height="70" fill="white"/>
</clipPath>
</defs>
</svg>
