<svg width="120" height="120" viewBox="0 0 120 120" fill="none" xmlns="http://www.w3.org/2000/svg">
<path d="M101.79 83.6844H82.0386C81.5413 83.6843 81.0645 83.4867 80.7129 83.1351C80.3613 82.7835 80.1637 82.3067 80.1636 81.8094L80.1645 67.6773C80.1643 67.205 80.3424 66.7501 80.6633 66.4035C80.9841 66.0568 81.4239 65.8441 81.8948 65.8078L91.474 65.0663C91.9308 65.0305 92.3848 65.1634 92.7502 65.4398C97.9941 69.4054 101.801 74.9733 103.595 81.2985C103.674 81.5775 103.687 81.8708 103.633 82.1557C103.579 82.4405 103.461 82.7091 103.286 82.9402C103.111 83.1714 102.885 83.3589 102.625 83.488C102.366 83.6172 102.08 83.6844 101.79 83.6844ZM83.9136 79.9344H99.1854C99.0875 79.6817 98.9849 79.4309 98.8797 79.1819C97.1609 75.146 94.4671 71.6 91.04 68.862L83.9144 69.4133L83.9136 79.9344Z" fill="#00D2E3"/>
<path d="M77.1023 53.052C77.4506 53.4653 77.8847 53.7979 78.3744 54.0266C78.8642 54.2554 79.3978 54.3748 79.9383 54.3767H108.473C109.468 54.3756 110.421 53.9801 111.124 53.2771C111.827 52.5741 112.222 51.6209 112.223 50.6267V26.704C112.223 25.9407 111.988 25.1959 111.551 24.5706V11.5703C111.551 11.3241 111.502 11.0802 111.408 10.8527C111.314 10.6252 111.176 10.4185 111.002 10.2443C110.827 10.0702 110.621 9.93211 110.393 9.8379C110.166 9.7437 109.922 9.69525 109.676 9.69531H78.0633C78.0443 9.69531 78.0287 9.70549 78.0099 9.70608C77.789 9.71049 77.5706 9.75452 77.3652 9.83607C77.323 9.85313 77.2887 9.88002 77.248 9.90004C77.1436 9.94513 77.0435 9.9998 76.9491 10.0634L58.4252 23.7546C58.3435 23.8056 58.2659 23.8629 58.1932 23.926L10.6494 59.0661C10.4134 59.2402 10.2216 59.4672 10.0894 59.729C9.95729 59.9907 9.8885 60.2799 9.88859 60.5731V74.011L8.53269 75.0165C8.29764 75.1912 8.10669 75.4185 7.97507 75.6801C7.84345 75.9417 7.77481 76.2305 7.77463 76.5234V100.737C7.76376 101.022 7.8206 101.306 7.94048 101.565C8.06036 101.824 8.23989 102.051 8.46435 102.227C8.68881 102.404 8.95184 102.524 9.23189 102.579C9.51194 102.635 9.80107 102.623 10.0756 102.544H18.9227C19.1512 104.676 20.1595 106.647 21.7538 108.079C23.3482 109.512 25.4158 110.304 27.5592 110.304C29.7025 110.304 31.7702 109.512 33.3645 108.079C34.9588 106.647 35.9672 104.676 36.1957 102.544H80.7061C80.9345 104.676 81.9427 106.647 83.537 108.079C85.1312 109.512 87.1989 110.305 89.3422 110.305C91.4855 110.305 93.5531 109.512 95.1473 108.079C96.7416 106.647 97.7499 104.676 97.9782 102.544H108.36C109.235 102.546 110.08 102.228 110.736 101.65C111.393 101.071 111.814 100.272 111.922 99.4042C112.812 92.1081 111.781 84.7061 108.931 77.9311C106.081 71.1561 101.51 65.2432 95.6717 60.778C94.5769 59.9427 93.2117 59.5422 91.8393 59.6537L78.3581 60.6974C77.4187 60.7756 76.5425 61.2028 75.9025 61.8949C75.2624 62.587 74.9048 63.4937 74.9002 64.4364V89.7856H27.567L77.1023 53.052ZM11.5246 77.4663L21.3531 70.178C21.7388 70.0551 22.0727 69.8075 22.3023 69.4741L51.0592 48.1493C51.1005 48.1139 51.1509 48.0918 51.189 48.0531L76.1883 29.5146V34.2626L11.5246 82.2149V77.4663ZM61.4126 35.8026V26.2081L67.3481 21.8212V31.4011L61.4126 35.8026ZM57.6626 38.5834L51.7273 42.9849V33.3665L57.6626 28.9796V38.5834ZM47.9773 45.7657L42.0419 50.1672V40.5249L47.9773 36.1381V45.7657ZM38.2919 52.948L32.3565 57.3494V47.6834L38.2919 43.2965V52.948ZM28.6065 60.1303L22.6712 64.5318V54.8418L28.6065 50.455V60.1303ZM79.9383 13.4453H86.76V22.954H79.9383V13.4453ZM90.51 22.954V13.4453H97.229V22.954H90.51ZM11.5246 86.8853L76.1883 38.933V49.0611L11.5246 97.0128V86.8853ZM79.9383 50.6268V26.704H108.473L108.476 50.6268H79.9383ZM107.801 22.954H100.979V13.4453H107.801V22.954ZM76.1883 24.829V24.8455L71.0981 28.6203V19.0496L76.1884 15.2874L76.1883 24.829ZM13.6386 61.5178L18.9212 57.6134V67.3127L13.6386 71.23V61.5178ZM27.5592 106.554C26.5734 106.554 25.6099 106.262 24.7904 105.714C23.9709 105.166 23.3322 104.388 22.9551 103.477C22.578 102.566 22.4794 101.564 22.6718 100.597C22.8643 99.6306 23.339 98.7426 24.0361 98.0457C24.7332 97.3487 25.6213 96.8741 26.5881 96.6819C27.5549 96.4897 28.557 96.5884 29.4676 96.9657C30.3783 97.3429 31.1567 97.9818 31.7043 98.8014C32.2519 99.621 32.5442 100.585 32.5442 101.57C32.5426 102.892 32.0168 104.159 31.0823 105.093C30.1477 106.028 28.8807 106.553 27.5592 106.554ZM89.3417 106.554C88.356 106.554 87.3924 106.262 86.5729 105.714C85.7534 105.166 85.1147 104.388 84.7376 103.477C84.3605 102.566 84.262 101.564 84.4544 100.597C84.6468 99.6306 85.1216 98.7426 85.8186 98.0457C86.5157 97.3487 87.4038 96.8741 88.3706 96.6819C89.3374 96.4897 90.3395 96.5884 91.2502 96.9657C92.1609 97.3429 92.9392 97.9818 93.4868 98.8014C94.0345 99.621 94.3268 100.585 94.3268 101.57C94.3253 102.892 93.7996 104.159 92.865 105.093C91.9304 106.028 90.6633 106.553 89.3417 106.554ZM108.218 98.7944H104.134V94.3322H108.464C108.467 95.8231 108.385 97.3129 108.218 98.7944ZM78.6502 64.4365L92.1304 63.3928C92.5801 63.3509 93.0292 63.4797 93.3883 63.7535C98.6695 67.8006 102.815 73.1436 105.424 79.2644C106.952 82.868 107.918 86.6852 108.286 90.5822H103.552C102.712 90.5835 101.907 90.9179 101.313 91.512C100.719 92.1062 100.385 92.9116 100.384 93.7518V98.7945H97.5822C97.0102 97.0607 95.9059 95.5516 94.4265 94.4818C92.947 93.4121 91.1678 92.8362 89.3422 92.8362C87.5165 92.8362 85.7373 93.4121 84.2579 94.4818C82.7784 95.5516 81.6741 97.0607 81.1021 98.7945H78.6502V64.4365ZM74.9002 98.7944H35.7997C35.4106 97.6283 34.7801 96.5573 33.9493 95.6512C33.1185 94.7451 32.1061 94.0243 30.9781 93.5356H74.9002V98.7944ZM24.1402 93.5356C23.0122 94.0243 21.9998 94.7451 21.169 95.6512C20.3382 96.5573 19.7077 97.6283 19.3185 98.7944H15.4185L22.51 93.5356H24.1402Z" fill="#00D2E3"/>
</svg>
