<svg width="120" height="120" viewBox="0 0 120 120" fill="none" xmlns="http://www.w3.org/2000/svg">
<g clip-path="url(#clip0_10437_11619)">
<path d="M112.992 53.0296C109.778 53.0296 107.088 55.2122 106.276 58.1673H91.6449C91.239 50.7794 88.2619 44.057 83.6554 38.8742L94.2104 28.3168C95.2422 28.9146 96.4431 29.253 97.6666 29.253C99.516 29.253 101.264 28.5311 102.583 27.2114C103.903 25.8918 104.624 24.1378 104.624 22.2937C104.624 20.4495 103.903 18.6956 102.583 17.3759C101.264 16.0562 99.5104 15.3344 97.6666 15.3344C95.8229 15.3344 94.0694 16.0562 92.75 17.3759C90.4947 19.6543 90.1113 23.0889 91.6449 25.7508L81.09 36.3081C75.9084 31.678 69.165 28.7003 61.7788 28.2942V13.682C64.7277 12.8924 66.9153 10.1797 66.9153 6.96516C66.9153 3.12457 63.7974 0.00585938 59.9577 0.00585938C56.118 0.00585938 53 3.12457 53 6.96516C53 10.1797 55.182 12.8699 58.1365 13.682V28.3168C50.7503 28.7228 44.0295 31.7006 38.8253 36.3307L28.2704 25.7733C28.8681 24.7413 29.2064 23.54 29.2064 22.3162C29.2064 20.4664 28.4847 18.7181 27.1653 17.3985C25.8459 16.0788 24.0924 15.3569 22.2487 15.3569C20.405 15.3569 18.6515 16.0788 17.3321 17.3985C16.0127 18.7181 15.291 20.4721 15.291 22.3162C15.291 24.1604 16.0127 25.9143 17.3321 27.234C18.6515 28.5537 20.405 29.2755 22.2487 29.2755C23.4948 29.2755 24.6732 28.9372 25.705 28.3393L36.2599 38.8967C31.6308 44.0796 28.6764 50.7963 28.2704 58.1899H13.639C12.8722 55.2122 10.1827 53.0296 6.9689 53.0296C3.12921 53.0296 0.0112305 56.1483 0.0112305 59.9889C0.0112305 63.8295 3.12921 66.9482 6.9689 66.9482C10.1827 66.9482 12.8722 64.7657 13.6841 61.8105H28.3155C28.7215 69.1984 31.6985 75.8983 36.305 81.1037L25.7501 91.6611C24.7183 91.0633 23.5173 90.7249 22.2938 90.7249C20.4444 90.7249 18.6966 91.4468 17.3772 92.7665C16.0578 94.0861 15.3361 95.8401 15.3361 97.6842C15.3361 99.5284 16.0578 101.282 17.3772 102.602C18.7473 103.972 20.5177 104.644 22.2938 104.644C24.0699 104.644 25.8459 103.972 27.2104 102.602C28.5298 101.282 29.2515 99.5284 29.2515 97.6842C29.2515 96.4379 28.9132 95.2592 28.3155 94.2271L38.8704 83.6697C44.052 88.2999 50.7954 91.2776 58.1816 91.6837V106.318C55.2328 107.108 53.0451 109.821 53.0451 113.035C53.0451 116.876 56.1631 119.995 60.0028 119.995C63.8425 119.995 66.9604 116.876 66.9604 113.035C66.9604 109.821 64.7784 107.131 61.824 106.318V91.6837C69.2101 91.2776 75.931 88.2999 81.1351 83.6697L91.69 94.2271C90.1564 96.889 90.5398 100.346 92.7951 102.602C94.1653 103.944 95.9357 104.644 97.7118 104.644C99.4878 104.644 101.264 103.972 102.628 102.602C103.993 101.232 104.669 99.5284 104.669 97.6842C104.669 95.8401 103.948 94.0861 102.628 92.7665C101.309 91.4468 99.5555 90.7249 97.7118 90.7249C96.4657 90.7249 95.2873 91.0633 94.2555 91.6611L83.7006 81.1037C88.3296 75.9209 91.2841 69.2041 91.69 61.8105H106.321C107.111 64.7601 109.823 66.9482 113.037 66.9482C116.876 66.9482 119.994 63.8295 119.994 59.9889C119.994 56.1483 116.826 53.0296 112.992 53.0296ZM95.338 19.9419C95.9639 19.3159 96.804 18.9606 97.6892 18.9606C98.5744 18.9606 99.4145 19.299 100.04 19.9419C100.666 20.5679 101.021 21.4082 101.021 22.2937C101.021 23.1791 100.683 24.0194 100.04 24.6454C99.4145 25.2714 98.5744 25.6267 97.6892 25.6267C96.804 25.6267 95.9639 25.2883 95.338 24.6454C94.0412 23.3483 94.0412 21.2391 95.338 19.9419ZM56.6423 6.95952C56.6423 5.13792 58.1309 3.6265 59.9746 3.6265C61.8183 3.6265 63.3068 5.11536 63.3068 6.95952C63.3068 8.80368 61.8183 10.2925 59.9746 10.2925C58.1309 10.2925 56.6423 8.78112 56.6423 6.95952ZM19.9144 24.6454C19.2886 24.0194 18.9334 23.1791 18.9334 22.2937C18.9334 21.4082 19.2717 20.5679 19.9144 19.9419C20.5403 19.3159 21.3804 18.9606 22.2656 18.9606C23.1508 18.9606 23.9909 19.299 24.6168 19.9419C25.2426 20.5679 25.5979 21.4082 25.5979 22.2937C25.5979 23.1791 25.2596 24.0194 24.6168 24.6454C23.9909 25.2714 23.1508 25.6267 22.2656 25.6267C21.3804 25.6267 20.5403 25.2658 19.9144 24.6454ZM6.95762 63.3276C5.13645 63.3276 3.62538 61.8387 3.62538 59.9946C3.62538 58.1504 5.11389 56.6616 6.95762 56.6616C8.80134 56.6616 10.2899 58.1504 10.2899 59.9946C10.2899 61.8387 8.77879 63.3276 6.95762 63.3276ZM24.6111 100.036C23.3143 101.333 21.2056 101.333 19.9088 100.036C19.283 99.4099 18.9277 98.5696 18.9277 97.6842C18.9277 96.7988 19.266 95.9585 19.9088 95.3325C20.5347 94.7065 21.3748 94.3512 22.26 94.3512C23.1452 94.3512 23.9853 94.6896 24.6111 95.3325C25.237 95.9585 25.5922 96.7988 25.5922 97.6842C25.5922 98.5696 25.2314 99.4099 24.6111 100.036ZM63.3125 113.018C63.3125 114.84 61.8239 116.351 59.9802 116.351C58.1365 116.351 56.648 114.863 56.648 113.018C56.648 111.174 58.1365 109.685 59.9802 109.685C61.8239 109.685 63.3125 111.197 63.3125 113.018ZM100.04 95.3325C100.666 95.9585 101.021 96.7988 101.021 97.6842C101.021 98.5696 100.683 99.4099 100.04 100.036C98.7436 101.333 96.6348 101.333 95.338 100.036C94.0412 98.7388 94.0412 96.6296 95.338 95.3325C95.9639 94.7065 96.804 94.3512 97.6892 94.3512C98.5744 94.3512 99.4145 94.7121 100.04 95.3325ZM59.9746 88.1138C44.4749 88.1138 31.8564 75.4923 31.8564 59.9889C31.8564 44.4856 44.4749 31.8641 59.9746 31.8641C75.4743 31.8641 88.0928 44.4856 88.0928 59.9889C88.0928 75.4923 75.4743 88.1138 59.9746 88.1138ZM112.992 63.3276C111.17 63.3276 109.659 61.8387 109.659 59.9946C109.659 58.1504 111.148 56.6616 112.992 56.6616C114.835 56.6616 116.324 58.1504 116.324 59.9946C116.324 61.8387 114.835 63.3276 112.992 63.3276ZM71.347 62.7975C72.2097 63.948 72.6664 65.4876 72.6664 67.3825C72.6664 69.159 72.1646 70.7437 71.1553 72.1592C70.1743 73.5522 68.7083 74.6069 66.8364 75.3513C65.4437 75.904 63.7635 76.2367 61.8465 76.3608V83.1058C61.8465 84.1378 61.0064 84.9781 59.9746 84.9781C58.9428 84.9781 58.1027 84.1378 58.1027 83.1058V76.3608C56.2082 76.2141 54.387 75.8307 52.6786 75.2328C50.7334 74.5617 49.1265 73.6989 47.9537 72.6894C47.232 72.0916 47.0911 71.0595 47.5703 70.2643C47.8579 69.8075 48.292 69.4973 48.8164 69.4015C49.3464 69.3056 49.8708 69.424 50.3049 69.7399C51.2634 70.4617 52.4869 71.1103 53.9529 71.6855C55.7741 72.43 57.8659 72.7909 60.093 72.7909C63.2617 72.7909 65.5396 72.2608 66.859 71.2287C68.1332 70.2474 68.7534 68.9954 68.7534 67.4107C68.7534 66.3053 68.4659 65.4425 67.9133 64.8447C67.2875 64.1735 66.4248 63.6434 65.3704 63.2599C64.2202 62.8539 62.9234 62.5155 61.5082 62.2786C60.0422 62.0136 58.5312 61.7259 57.0201 61.3932C55.4865 61.0548 54.0431 60.5755 52.7745 59.9777C51.4044 59.3517 50.3049 58.4437 49.4648 57.2876C48.6021 56.1145 48.168 54.5523 48.168 52.6574C48.168 51.0276 48.6247 49.488 49.5381 48.1232C50.4233 46.7527 51.816 45.653 53.6146 44.8127C54.8888 44.2375 56.3999 43.854 58.1252 43.6848V36.9172C58.1252 35.8852 58.9653 35.0449 59.9971 35.0449C61.029 35.0449 61.8691 35.8852 61.8691 36.9172V43.6622C63.335 43.7806 64.7953 44.0457 66.2613 44.48C67.8682 44.9593 69.2609 45.5853 70.366 46.3298C71.2061 46.905 71.4429 48.0555 70.896 48.924C70.6084 49.3582 70.2025 49.6459 69.695 49.7417C69.1876 49.8376 68.6858 49.7417 68.2798 49.4541C67.3213 48.8056 66.2387 48.3036 65.0434 47.9653C63.5098 47.531 61.9254 47.2941 60.296 47.2941C57.3697 47.2941 55.2553 47.8243 53.9867 48.8789C52.7858 49.8884 52.1655 51.1347 52.1655 52.5954C52.1655 53.7459 52.4531 54.682 53.0282 55.3306C53.6541 56.0525 54.5167 56.6052 55.5485 56.9605C56.6987 57.3665 58.0181 57.7049 59.4108 57.97C60.8485 58.235 62.337 58.5452 63.8481 58.8554C65.3817 59.1938 66.7969 59.6449 68.0712 60.2258C69.3906 60.8518 70.5182 61.7147 71.3583 62.82L71.347 62.7975Z" fill="#00D2E3"/>
</g>
<defs>
<clipPath id="clip0_10437_11619">
<rect width="120" height="120" fill="white"/>
</clipPath>
</defs>
</svg>
