<svg width="110" height="110" viewBox="0 0 110 110" fill="none" xmlns="http://www.w3.org/2000/svg">
<path d="M17.0316 16.5516C15.6845 15.9221 14.8932 15.0251 13.2763 14.8771C11.2007 14.6872 7.9961 15.6108 7.6096 18.0353C7.4693 18.9155 7.72969 19.8013 8.32374 20.4658L10.8931 23.3361C12.7875 25.4478 15.4896 26.6589 18.3065 26.6589C19.985 26.6589 21.6563 26.2262 23.1394 25.407C26.0402 23.8053 40.5114 15.8144 40.5295 15.8043L40.5896 15.7706C42.4192 14.7265 43.1374 12.3971 42.2244 10.4676C41.8009 9.57259 41.1484 8.87521 40.2854 8.39482C38.0882 7.17193 35.118 7.33478 32.3403 8.83138C31.8358 9.10316 30.2984 10.1449 29.7076 9.77583C29.7069 9.7754 26.5988 7.83064 26.5988 7.83064C24.9045 6.77038 22.7294 6.79445 21.0586 7.89144C20.104 8.51835 19.0649 9.07867 18.8999 10.3331C18.8062 11.0451 19.0266 11.761 19.5042 12.2966L21.6483 14.7028C20.3028 15.5145 18.4959 17.2359 17.0316 16.5516ZM19.3093 19.8698C19.327 19.8602 19.3446 19.8501 19.3618 19.8398L24.0653 17.0043C24.6991 16.6162 25.1249 15.9721 25.2337 15.2372C25.3424 14.5022 25.1213 13.7625 24.6269 13.2077L22.4856 10.8047L22.825 10.5819C23.4487 10.1724 24.2593 10.1638 24.8912 10.5592L27.9996 12.5039C29.1107 13.1992 30.4789 13.275 31.6601 12.7072C31.9147 12.5847 32.1521 12.4796 32.3895 12.3744C32.8359 12.1763 33.2978 11.9713 33.8661 11.6652C35.2608 10.9141 37.2679 10.3987 38.7196 11.2071H38.7198C38.9955 11.3605 39.1789 11.5571 39.3149 11.8443C39.5096 12.256 39.3656 12.7632 38.994 12.9755C38.9918 12.9768 38.9738 12.9867 38.9718 12.988C38.8915 13.0322 21.5837 22.5895 21.5837 22.5895C20.5756 23.146 19.4423 23.4403 18.3065 23.4403C16.4025 23.4403 14.5735 22.619 13.289 21.1868L10.9431 18.5666L11.0606 18.4987C12.1389 17.8754 13.4985 17.9292 14.5243 18.6353L15.3605 19.2109C15.5038 19.3093 15.6347 19.4092 15.6667 19.4371C16.661 20.35 18.1253 20.5243 19.3093 19.8698Z" fill="#00D2E3"/>
<path d="M69.5757 8.32508C69.2691 7.58043 68.5513 7.09961 67.7459 7.09961C67.7454 7.09961 67.7446 7.09961 67.7439 7.09961C66.9383 7.10047 66.2201 7.58279 65.9148 8.32852C65.9098 8.34076 65.9047 8.35322 65.9001 8.36547L59.7831 24.4263C59.4667 25.2569 59.8837 26.1868 60.7142 26.503C61.5438 26.8193 62.4745 26.4027 62.7909 25.5719L63.9195 22.6083H71.5265L72.6432 25.5671C72.8862 26.2117 73.4987 26.6087 74.1491 26.6087C74.3379 26.6087 74.53 26.5752 74.7171 26.5047C75.5486 26.1908 75.9684 25.2623 75.6545 24.4308L69.5931 8.36934C69.5875 8.35473 69.5817 8.3399 69.5757 8.32508ZM65.1456 19.39L67.7407 12.5764L70.3122 19.39H65.1456Z" fill="#00D2E3"/>
<path d="M85.1167 26.6082C86.0055 26.6082 86.7259 25.8876 86.7259 24.999V9.02129C86.7259 8.13248 86.0055 7.41211 85.1167 7.41211H81.7016C80.8128 7.41211 80.0924 8.1327 80.0924 9.02129C80.0924 9.9101 80.8128 10.6305 81.7016 10.6305H83.5076V24.999C83.5073 25.8878 84.2277 26.6082 85.1167 26.6082Z" fill="#00D2E3"/>
<path d="M91.7306 13.5838C92.6033 13.7553 93.4487 13.187 93.6199 12.3149C93.8472 11.158 94.8703 10.3182 96.0526 10.3182C97.3896 10.3182 98.4827 11.3819 98.53 12.7075L98.4767 13.1247C98.273 13.9404 97.7916 14.8941 97.045 15.9613C94.5113 19.5814 92.9992 21.561 92.1871 22.6246C91.201 23.9159 90.7928 24.4504 91.071 25.3551C91.233 25.8817 91.8526 26.3937 92.3869 26.5718H100.838C101.727 26.5606 102.439 25.8312 102.427 24.9424C102.416 24.0604 101.698 23.3534 100.818 23.3534C100.812 23.3534 100.805 23.3534 100.798 23.3534C99.0239 23.3757 97.1352 23.3895 95.6468 23.3899C96.5459 22.1943 97.8524 20.4206 99.6817 17.8068C100.688 16.3688 101.343 15.0136 101.63 13.7787C101.642 13.7263 101.651 13.673 101.658 13.6195L101.737 13.0014C101.746 12.9339 101.75 12.8656 101.75 12.7975C101.75 9.65561 99.1943 7.09961 96.0526 7.09961C93.3361 7.09961 90.9849 9.03213 90.4617 11.6947C90.2905 12.5667 90.8585 13.4126 91.7306 13.5838Z" fill="#00D2E3"/>
<path d="M108.391 0H93.3954C92.5066 0 91.7862 0.720586 91.7862 1.60918C91.7862 2.49799 92.5066 3.21836 93.3954 3.21836H106.782V30.4898H3.21857V3.21857H85.8879C86.7767 3.21857 87.4971 2.49799 87.4971 1.60939C87.4971 0.720586 86.7767 0.000214844 85.8879 0.000214844H1.60918C0.720371 0 0 0.720586 0 1.60918V108.391C0 109.279 0.720371 110 1.60918 110H108.391C109.28 110 110 109.279 110 108.391V1.60918C110 0.720586 109.28 0 108.391 0ZM16.35 106.781H3.21857V33.7086H16.35V106.781ZM53.3908 75.1004H32.8056C31.9168 75.1004 31.1964 75.8209 31.1964 76.7095C31.1964 77.5981 31.9168 78.3189 32.8056 78.3189H53.3908V106.781H19.5686V78.3189H25.4983C26.3871 78.3189 27.1077 77.5983 27.1077 76.7095C27.1077 75.8207 26.3873 75.1004 25.4983 75.1004H19.5686V65.3894H53.3908V75.1004ZM53.3908 62.1708H19.5686V33.7086H53.3908V62.1708ZM90.4314 106.781H56.6092V78.3189H90.4314V106.781ZM90.4314 75.1004H56.6092V65.3894H90.4314V75.1004ZM90.4314 62.1708H56.6092V33.7086H90.4314V62.1708ZM106.781 106.781H93.65V33.7086H106.781V106.781Z" fill="#00D2E3"/>
</svg>
