<svg width="87" height="86" viewBox="0 0 87 86" fill="none" xmlns="http://www.w3.org/2000/svg">
<g clip-path="url(#clip0_10437_11894)">
<path d="M51.4091 16.3347V9.63969C51.4091 -3.21323 0 -3.21323 0 9.63969V48.7989C0 53.8515 8.0011 57.0012 17.6266 58.121C14.1059 59.6818 11.8636 61.7902 11.8636 64.4625V76.2103C11.8636 82.6369 24.795 86 37.5683 86C50.3415 86 63.2729 82.6367 63.2729 76.2103V70.304C75.369 69.9753 87.0002 66.6414 87.0002 60.5467V25.3035C87 17.1893 66.5174 14.2038 51.4091 16.3347ZM25.7046 3.90908C39.7773 3.90908 47.4546 7.78183 47.4546 9.77272C47.4546 11.7636 39.7771 15.6364 25.7046 15.6364C11.6321 15.6364 3.95467 11.7636 3.95467 9.77272C3.95449 7.78201 11.6319 3.90908 25.7046 3.90908ZM3.95449 15.2118C8.7524 18.0663 17.251 19.5456 25.7044 19.5456C34.1578 19.5456 42.6567 18.0663 47.4546 15.2118V17.1541C40.5831 18.6605 35.5909 21.4115 35.5909 25.4092V26.5656C32.4921 27.0571 29.1471 27.3636 25.7046 27.3636C11.6319 27.3636 3.95467 23.4909 3.95467 21.5L3.95449 15.2118ZM39.5454 54.3027C39.9217 54.5264 40.3132 54.7439 40.7335 54.9506C40.3377 54.9343 39.9427 54.9184 39.5454 54.9081V54.3027ZM3.95449 26.9391C8.7524 29.7936 17.251 31.2729 25.7044 31.2729C29.1271 31.2729 32.4539 30.969 35.5907 30.5058V40.2475C32.4919 40.739 29.1469 41.0455 25.7044 41.0455C11.6317 41.0455 3.95449 37.1728 3.95449 35.1819V26.9391ZM3.95449 48.8638V40.621C8.7524 43.4755 17.251 44.9547 25.7044 44.9547C29.1271 44.9547 32.4539 44.6509 35.5907 44.1877V53.9294C32.4919 54.4209 29.1469 54.7274 25.7044 54.7274C11.6319 54.7274 3.95449 50.8545 3.95449 48.8638ZM59.3182 76.2274C59.3182 78.2183 51.6408 82.091 37.5683 82.091C23.4958 82.091 15.8181 78.2183 15.8181 76.2274V69.939C20.616 72.7935 29.1147 74.2728 37.5681 74.2728C45.6598 74.2728 53.804 72.9208 58.6948 70.3022C58.9002 70.3099 59.1117 70.3108 59.318 70.317V76.2274H59.3182ZM37.5683 70.3637C23.4956 70.3637 15.8183 66.491 15.8183 64.5001C15.8183 62.5092 23.4958 58.6364 37.5683 58.6364C51.6408 58.6364 59.3182 62.5092 59.3182 64.5001C59.3182 66.491 51.6408 70.3637 37.5683 70.3637ZM83.0455 60.5911C83.0455 62.4828 76.0393 66.0347 63.2727 66.3869V64.5001C63.2727 62.0581 61.4033 60.0842 58.3877 58.5718C59.3546 58.6104 60.3244 58.6364 61.2954 58.6364C69.7488 58.6364 78.2476 57.1572 83.0453 54.3027V60.5911H83.0455ZM83.0455 48.8638C83.0455 50.8547 75.3681 54.7274 61.2956 54.7274C47.223 54.7274 39.5456 50.8547 39.5456 48.8638V42.5754C44.3433 45.4299 52.8422 46.9092 61.2956 46.9092C69.749 46.9092 78.2478 45.4299 83.0455 42.5754V48.8638ZM83.0455 37.1365C83.0455 39.1274 75.3681 43.0001 61.2956 43.0001C47.223 43.0001 39.5456 39.1274 39.5456 37.1365V30.8481C44.3433 33.7026 52.8422 35.1819 61.2956 35.1819C69.749 35.1819 78.2478 33.7026 83.0455 30.8481V37.1365ZM61.2956 31.2729C47.2229 31.2729 39.5456 27.4001 39.5456 25.4092C39.5456 23.4183 47.223 19.5456 61.2956 19.5456C75.3681 19.5456 83.0455 23.4183 83.0455 25.4092C83.0455 27.4001 75.3681 31.2729 61.2956 31.2729Z" fill="#00D2E3"/>
</g>
<defs>
<clipPath id="clip0_10437_11894">
<rect width="87" height="86" fill="white"/>
</clipPath>
</defs>
</svg>
