<svg width="120" height="106" viewBox="0 0 120 106" fill="none" xmlns="http://www.w3.org/2000/svg">
<g clip-path="url(#clip0_10437_11628)">
<path d="M118.178 102.342H106.321V29.2488C106.321 28.2369 105.503 27.4229 104.499 27.4229H84.9657C83.956 27.4229 83.1437 28.2425 83.1437 29.2488V102.342H71.5973V64.0262C71.5973 63.0144 70.7794 62.2003 69.7753 62.2003H50.2416C49.2319 62.2003 48.4197 63.02 48.4197 64.0262V102.342H36.8732V45.9365C36.8732 44.9246 36.0553 44.1106 35.0512 44.1106H15.5063C14.4966 44.1106 13.6843 44.9303 13.6843 45.9365V102.342H1.82194C0.812259 102.342 0 103.162 0 104.168C0 105.175 0.8179 105.994 1.82194 105.994H118.172C119.182 105.994 119.994 105.175 119.994 104.168C119.994 103.162 119.176 102.342 118.172 102.342H118.178ZM17.3282 102.342V47.7455H33.2406V102.342H17.3282ZM52.0297 102.342V65.8522H67.9421V102.342H52.0297ZM86.7594 102.342V31.0747H102.672V102.342H86.7594ZM13.6787 32.6406C13.6787 31.6287 14.4966 30.8147 15.5006 30.8147H35.0343C35.322 30.8147 35.6322 30.8882 35.8973 31.0295L59.7067 43.7036L99.671 3.62925H84.96C83.9504 3.62925 83.1381 2.80956 83.1381 1.80332C83.1381 0.797078 83.956 0 84.96 0H104.042C105.052 0 105.864 0.81969 105.864 1.82593V20.9219C105.864 21.9338 105.047 22.7478 104.042 22.7478C103.038 22.7478 102.221 21.9281 102.221 20.9219V6.25225L61.3256 47.2141C60.9646 47.5759 60.5077 47.7455 60.0282 47.7455C59.7405 47.7455 59.4529 47.672 59.1877 47.5307L34.5887 34.4439H15.5063C14.4966 34.4439 13.6843 33.6525 13.6843 32.6406H13.6787Z" fill="#00D2E3"/>
</g>
<defs>
<clipPath id="clip0_10437_11628">
<rect width="120" height="106" fill="white"/>
</clipPath>
</defs>
</svg>
