<svg width="120" height="120" viewBox="0 0 120 120" fill="none" xmlns="http://www.w3.org/2000/svg">
<g clip-path="url(#clip0_10437_11632)">
<path d="M104.49 59.9774C104.49 59.8589 104.467 59.763 104.439 59.6389C104.439 59.5881 104.417 59.5655 104.417 59.5204C104.394 59.4019 104.343 59.2777 104.27 59.1818C104.27 59.1818 104.262 59.1667 104.247 59.1367L104.225 59.1141L90.0296 34.0487C90.0296 34.0487 90.0071 34.0261 90.0071 33.9979C89.9337 33.8794 89.8603 33.7553 89.7644 33.6594L89.7418 33.6368C89.6458 33.5409 89.5273 33.4449 89.4031 33.3716C89.3806 33.349 89.3298 33.3208 89.3072 33.3208C89.2112 33.27 89.1153 33.2249 89.0193 33.2023C88.9685 33.1797 88.946 33.1797 88.9008 33.1797C88.7541 33.1572 88.613 33.1289 88.4662 33.1289H31.5564C31.4096 33.1289 31.2685 33.1515 31.1218 33.1797C31.071 33.1797 31.0484 33.2023 31.0032 33.2023C30.9073 33.2249 30.8113 33.2757 30.7154 33.3208C30.6928 33.3434 30.642 33.3434 30.6194 33.3716C30.5009 33.4449 30.3767 33.5409 30.2808 33.6368L30.2582 33.6594C30.1623 33.7553 30.0889 33.8738 30.0155 33.9979C30.0155 34.0205 29.9929 34.0205 29.9929 34.0487L15.7754 59.0915L15.7528 59.1141C15.7528 59.1141 15.7528 59.1366 15.7302 59.1649C15.6794 59.2834 15.6343 59.3793 15.5835 59.5034C15.5835 59.5542 15.5609 59.5768 15.5609 59.6219C15.5383 59.7404 15.5101 59.8364 15.5101 59.9605V60.0564C15.5101 60.2031 15.5327 60.3442 15.5609 60.4909C15.5609 60.5135 15.5835 60.5417 15.5835 60.5643C15.606 60.6828 15.6568 60.7787 15.7302 60.8746C15.7302 60.8972 15.7528 60.9254 15.7528 60.948C15.7528 60.948 15.7697 60.9649 15.8036 60.9988C15.8036 60.9988 15.8544 61.0721 15.877 61.0947L58.5523 119.295L58.6031 119.345L58.8176 119.56C58.8176 119.56 58.8684 119.611 58.8909 119.611C58.9869 119.684 59.0828 119.757 59.2014 119.825C59.2239 119.848 59.2522 119.848 59.2747 119.848C59.3707 119.898 59.4666 119.921 59.5626 119.944C59.5852 119.944 59.636 119.966 59.6585 119.966C59.7771 119.989 59.9012 120.017 60.0423 120.017C60.1609 120.017 60.3076 119.994 60.4261 119.966C60.4487 119.966 60.4995 119.944 60.5221 119.944C60.618 119.921 60.714 119.87 60.8099 119.848C60.8325 119.848 60.8607 119.825 60.8833 119.825C61.0018 119.774 61.0978 119.707 61.1937 119.611C61.2163 119.588 61.2445 119.56 61.2671 119.56C61.3405 119.487 61.4139 119.413 61.4816 119.345C61.4816 119.345 61.4985 119.328 61.5324 119.295L104.208 61.0947C104.208 61.0947 104.258 61.0213 104.281 60.9988C104.281 60.9988 104.298 60.9818 104.332 60.948C104.332 60.948 104.354 60.8972 104.354 60.8746C104.405 60.7787 104.45 60.6602 104.501 60.5643C104.501 60.5417 104.524 60.5135 104.524 60.4909C104.546 60.3442 104.569 60.2031 104.569 60.0564C104.496 60.0339 104.496 60.0056 104.496 59.9831L104.49 59.9774ZM71.9007 61.8452L59.9915 110.56L48.0824 61.8452H71.9063H71.9007ZM48.8952 58.1999L59.9915 38.5855L71.0879 58.1999H48.9008H48.8952ZM74.2317 56.3265L63.1353 36.7347H85.3506L74.2317 56.3265ZM45.774 56.3265L34.6776 36.7347H56.8929L45.774 56.3265ZM44.3573 61.8452L56.0745 109.792L20.9172 61.8452H44.3573ZM75.6484 61.8452H99.0885L63.9537 109.792L75.6484 61.8452ZM77.3529 58.1999L88.4493 38.5855L99.5456 58.1999H77.3585H77.3529ZM31.5564 38.6081L42.6527 58.2225H20.4656L31.562 38.6081H31.5564ZM13.1339 60.0226C13.1339 61.0326 12.3155 61.8452 11.3109 61.8452H1.82306C0.812756 61.8452 0 61.027 0 60.0226C0 59.0182 0.8184 58.1999 1.82306 58.1999H11.3334C12.3155 58.1999 13.1339 59.0182 13.1339 60.0226ZM120 60.0226C120 61.0326 119.182 61.8452 118.177 61.8452H108.667C107.656 61.8452 106.844 61.027 106.844 60.0226C106.844 59.0182 107.662 58.1999 108.667 58.1999H118.177C119.187 58.1999 120 59.0182 120 60.0226ZM26.8717 93.1571C27.5942 93.8794 27.5942 95.0306 26.8717 95.7246L20.1496 102.445C19.7883 102.806 19.3312 102.976 18.8514 102.976C18.3717 102.976 17.9145 102.806 17.5533 102.445C16.8308 101.723 16.8308 100.572 17.5533 99.8777L24.2754 93.1571C24.9979 92.4349 26.1493 92.4349 26.8717 93.1571ZM93.1283 26.888C92.4058 26.1657 92.4058 25.0146 93.1283 24.3205L99.8504 17.5999C100.573 16.8776 101.724 16.8776 102.419 17.5999C103.141 18.3222 103.141 19.4733 102.419 20.1674L95.6964 26.888C95.3351 27.2491 94.8779 27.4184 94.3982 27.4184C93.9636 27.4184 93.4838 27.2491 93.1226 26.888H93.1283ZM102.424 99.8777C103.147 100.6 103.147 101.751 102.424 102.445C102.063 102.806 101.606 102.976 101.126 102.976C100.646 102.976 100.189 102.806 99.8279 102.445L93.1057 95.7246C92.3832 95.0023 92.3832 93.8512 93.1057 93.1571C93.8281 92.4349 94.9795 92.4349 95.6738 93.1571L102.424 99.8777ZM17.5815 20.1674C16.859 19.4451 16.859 18.294 17.5815 17.5999C18.3039 16.8776 19.4553 16.8776 20.1496 17.5999L26.8717 24.3205C27.5942 25.0428 27.5942 26.1939 26.8717 26.888C26.5105 27.2491 26.0533 27.4184 25.5736 27.4184C25.0938 27.4184 24.6367 27.2491 24.2754 26.888L17.5758 20.1674H17.5815ZM58.1854 11.3082V1.82263C58.1854 0.812565 59.0038 0 60.0085 0C61.0131 0 61.8315 0.818207 61.8315 1.82263V11.3308C61.8315 12.3408 61.0131 13.1534 60.0085 13.1534C58.9982 13.1308 58.1854 12.3126 58.1854 11.3025V11.3082Z" fill="#00D2E3"/>
</g>
<defs>
<clipPath id="clip0_10437_11632">
<rect width="120" height="120" fill="white"/>
</clipPath>
</defs>
</svg>
