<svg width="110" height="110" viewBox="0 0 110 110" fill="none" xmlns="http://www.w3.org/2000/svg">
<path d="M55.0001 103.089C45.489 103.089 36.1915 100.269 28.2833 94.9845C20.3751 89.7004 14.2114 82.19 10.5717 73.4029C6.93197 64.6158 5.97965 54.9467 7.83517 45.6184C9.69069 36.29 14.2707 27.7214 20.9961 20.9961C27.7214 14.2707 36.29 9.69069 45.6184 7.83517C54.9467 5.97965 64.6158 6.93197 73.4029 10.5717C82.19 14.2114 89.7004 20.3751 94.9845 28.2833C100.269 36.1915 103.089 45.489 103.089 55.0001C103.075 67.7496 98.0035 79.9729 88.9882 88.9882C79.9729 98.0035 67.7496 103.075 55.0001 103.089ZM55.0001 10.3487C46.1688 10.3487 37.536 12.9674 30.1931 17.8738C22.8502 22.7801 17.1271 29.7537 13.7475 37.9127C10.368 46.0717 9.48373 55.0496 11.2066 63.7111C12.9295 72.3726 17.1821 80.3288 23.4267 86.5734C29.6714 92.818 37.6275 97.0706 46.289 98.7935C54.9505 100.516 63.9284 99.6321 72.0874 96.2526C80.2464 92.873 87.22 87.1499 92.1264 79.8071C97.0327 72.4642 99.6515 63.8313 99.6515 55.0001C99.638 43.1619 94.9293 31.8125 86.5585 23.4416C78.1876 15.0708 66.8382 10.3621 55.0001 10.3487Z" fill="#00D2E3"/>
<path d="M54.7718 61.5713C54.6277 61.5719 54.4841 61.5539 54.3447 61.5176C53.0092 61.2229 51.7894 60.5434 50.8358 59.563C49.8823 58.5827 49.237 57.3444 48.9794 56.0013C48.8375 55.0032 48.9214 53.9859 49.225 53.0245C49.5286 52.0631 50.0441 51.1821 50.7334 50.4464C51.3632 49.7603 52.139 49.2242 53.0035 48.8776C53.868 48.5311 54.7992 48.3829 55.7286 48.4441C56.9288 48.5247 58.075 48.9739 59.0103 49.7303C59.9457 50.4868 60.6247 51.5136 60.9545 52.6705C61.1891 53.5842 61.1135 54.55 60.7395 55.416C60.3655 56.2821 59.7143 56.9993 58.8883 57.455C58.6962 57.5741 58.4824 57.6542 58.2594 57.6906C58.0363 57.727 57.8082 57.7191 57.5881 57.6672C57.3681 57.6153 57.1605 57.5206 56.9772 57.3883C56.7938 57.2561 56.6384 57.089 56.5197 56.8966C56.401 56.7042 56.3215 56.4903 56.2856 56.2671C56.2498 56.0439 56.2583 55.8158 56.3107 55.5959C56.3631 55.376 56.4584 55.1687 56.5911 54.9856C56.7237 54.8026 56.8912 54.6476 57.0839 54.5294C57.6865 54.1576 57.6915 53.7967 57.6168 53.4921C57.4597 53.0434 57.1742 52.6508 56.7959 52.363C56.4175 52.0752 55.9629 51.9049 55.4885 51.8732C55.0695 51.8459 54.6498 51.9145 54.2612 52.0738C53.8726 52.233 53.5255 52.4787 53.2461 52.7922C52.9095 53.1559 52.6576 53.5896 52.5085 54.0622C52.3593 54.5348 52.3166 55.0345 52.3834 55.5256C52.5454 56.1935 52.8974 56.8003 53.3967 57.2727C53.896 57.7451 54.5214 58.0628 55.1973 58.1876C55.6028 58.2914 55.9565 58.5397 56.192 58.8857C56.4274 59.2317 56.5286 59.6518 56.4763 60.0671C56.4241 60.4824 56.2221 60.8644 55.9083 61.1413C55.5945 61.4183 55.1904 61.5711 54.7718 61.5713Z" fill="#00D2E3"/>
<path d="M55 15.0195C47.0927 15.0195 39.3629 17.3643 32.7882 21.7574C26.2135 26.1505 21.0891 32.3946 18.0631 39.7C15.0371 47.0054 14.2454 55.0441 15.788 62.7995C17.3306 70.5549 21.1384 77.6787 26.7297 83.2701C32.3211 88.8614 39.4449 92.6692 47.2003 94.2118C54.9557 95.7545 62.9944 94.9627 70.2998 91.9367C77.6053 88.9107 83.8493 83.7863 88.2424 77.2116C92.6355 70.6369 94.9803 62.9071 94.9803 54.9998C94.9682 44.4001 90.7522 34.2379 83.257 26.7428C75.7619 19.2476 65.5998 15.0316 55 15.0195ZM55.8132 78.8206C54.9743 83.2211 53.4116 87.452 51.1885 91.3412C47.0137 90.8955 42.9482 89.7267 39.1741 87.8869C42.5965 85.3294 45.6262 82.2848 48.167 78.8499C50.7942 75.2512 52.8573 71.2727 54.2849 67.0519C54.5228 67.0659 54.7587 67.0881 55 67.0881C55.4085 67.0879 55.8167 67.0673 56.2231 67.0261C56.665 70.9564 56.5269 74.9304 55.8132 78.8206ZM55 63.6506C53.2891 63.6506 51.6165 63.1432 50.1939 62.1927C48.7713 61.2421 47.6625 59.891 47.0077 58.3103C46.353 56.7296 46.1817 54.9902 46.5154 53.3121C46.8492 51.634 47.6731 50.0926 48.883 48.8827C50.0928 47.6729 51.6343 46.849 53.3123 46.5152C54.9904 46.1814 56.7298 46.3527 58.3106 47.0075C59.8913 47.6622 61.2424 48.771 62.1929 50.1936C63.1435 51.6163 63.6508 53.2888 63.6508 54.9998C63.6483 57.2933 62.736 59.4922 61.1143 61.114C59.4925 62.7358 57.2936 63.648 55 63.6506ZM43.0121 53.518C34.5796 52.5924 26.6676 48.9817 20.4427 43.2184C21.8001 39.2417 23.8343 35.5294 26.4555 32.2452C28.1877 36.1536 30.483 39.7873 33.2682 43.0306C36.1907 46.3906 39.6081 49.2856 43.4028 51.6161C43.2214 52.2385 43.0907 52.8745 43.0121 53.518ZM30.2267 53.6461C34.3197 55.4056 38.657 56.5312 43.0891 56.984C43.194 57.6228 43.3505 58.2519 43.5571 58.8654C39.8209 60.1728 35.9128 60.9238 31.9581 61.0943C27.4893 61.2522 23.0251 60.6718 18.7452 59.3766C18.2047 55.2039 18.4264 50.9678 19.3996 46.8744C22.6587 49.6481 26.3064 51.9296 30.2267 53.6461ZM30.3828 64.562C30.9526 64.562 31.5225 64.5508 32.0923 64.5284C36.5437 64.3383 40.94 63.4706 45.1298 61.9551C45.5023 62.4843 45.9164 62.983 46.3682 63.4464C43.5691 66.2456 40.3737 68.6182 36.8844 70.4878C32.933 72.5683 28.665 73.9816 24.2528 74.6706C21.9815 71.1368 20.3408 67.2357 19.4036 63.1409C22.9887 64.0761 26.6778 64.5536 30.3828 64.562ZM54.186 31.1798C55.0254 26.7791 56.5883 22.548 58.8111 18.6583C62.9862 19.104 67.0519 20.2728 70.8261 22.1126C63.7753 27.3472 58.5008 34.6196 55.7151 42.9476C55.4772 42.9336 55.2413 42.9115 55 42.9115C54.5912 42.9115 54.1826 42.9322 53.7759 42.9735C53.3344 39.0434 53.4725 35.0697 54.186 31.1798ZM63.6318 46.5531C69.6097 40.5376 77.3628 36.6027 85.7473 35.329C88.0217 38.867 89.6638 42.7734 90.6005 46.8737C82.1063 44.62 73.1249 45.0288 64.8706 48.0447C64.498 47.5154 64.0837 47.0166 63.6318 46.5531ZM66.988 56.4816C75.4205 57.4071 83.3326 61.0178 89.5574 66.7813C88.1999 70.758 86.1657 74.4703 83.5445 77.7545C80.0112 69.715 74.0959 62.9534 66.5974 58.3828C66.7787 57.7607 66.9093 57.1249 66.988 56.4816ZM79.7734 56.3535C75.6803 54.5941 71.3431 53.4685 66.9111 53.0155C66.8062 52.3769 66.6497 51.7478 66.4432 51.1345C74.4449 48.3073 83.1436 48.128 91.2549 50.6231C91.7954 54.7957 91.5738 59.0317 90.6006 63.1251C87.3415 60.3514 83.6937 58.07 79.7734 56.3535ZM83.5366 32.2346C74.9118 33.8897 67.0029 38.1522 60.8783 44.4463C60.3116 44.1326 59.7205 43.8652 59.1107 43.6467C61.886 35.6355 67.1615 28.7278 74.1597 23.9417C77.7363 26.1499 80.9078 28.9548 83.5366 32.2346ZM55.0142 18.4578C50.916 26.2404 49.31 35.0949 50.4138 43.821C49.8159 44.0703 49.239 44.3675 48.6888 44.7096C46.5813 41.3565 44.9783 37.7117 43.9314 33.8922C42.7824 29.5767 42.3541 25.1011 42.6637 20.646C46.6178 19.2067 50.7921 18.466 55 18.457L55.0142 18.4578ZM39.1551 22.1218C39.0209 26.3923 39.5121 30.6594 40.613 34.7877C41.7896 39.0868 43.6146 43.1814 46.0253 46.9305C45.5919 47.4098 45.1975 47.9229 44.8458 48.465C37.6474 43.9722 32.0837 37.2847 28.9753 29.389C31.9276 26.4018 35.3709 23.9437 39.1551 22.1218ZM26.4635 77.7649C30.6596 76.9457 34.7132 75.517 38.4957 73.5242C42.4218 71.422 46.0049 68.7343 49.1217 65.5532C49.6884 65.867 50.2794 66.1344 50.8892 66.3529C48.1132 74.3637 42.838 81.2712 35.8405 86.058C32.2639 83.8498 29.0923 81.0448 26.4635 77.7649ZM54.9864 91.5418C59.0834 83.7589 60.6889 74.9048 59.5855 66.1789C60.1839 65.9295 60.7611 65.6321 61.3116 65.2897C65.8477 72.4577 67.9598 80.8938 67.3363 89.3536C63.3822 90.7928 59.2079 91.5335 55 91.5425L54.9864 91.5418ZM70.845 87.8778C71.1483 79.1 68.7502 70.4406 63.9746 63.0694C64.408 62.5899 64.8025 62.0767 65.1542 61.5345C72.3527 66.0274 77.9164 72.715 81.0248 80.6106C78.0725 83.5978 74.6292 86.056 70.845 87.8778Z" fill="#00D2E3"/>
</svg>
