<svg width="87" height="87" viewBox="0 0 87 87" fill="none" xmlns="http://www.w3.org/2000/svg">
<path d="M7.80281 13.9606C7.06875 14.6946 6.96 15.8365 7.53094 16.7065L18.2972 32.8559C19.0992 34.0657 20.4586 34.7862 21.9131 34.7862H31.7278L42.0998 45.1582C38.7558 49.9568 39.218 56.6042 43.5 60.8862L60.6553 78.0415C63.1973 80.5835 67.3298 80.5835 69.8855 78.0415L78.0553 69.8717C80.5974 67.3296 80.5974 63.1971 78.0553 60.6415L60.9136 43.4998C56.6316 39.2178 49.9842 38.7556 45.1856 42.0996L34.8136 31.7276V21.9129C34.8136 20.4584 34.0931 19.099 32.8833 18.297L16.7203 7.51714C15.8639 6.94621 14.7084 7.05496 13.9744 7.78902L7.80281 13.9606ZM30.4636 30.4498H21.9131L12.1392 15.7821L15.7959 12.1254L30.4636 21.8993V30.4498ZM74.9695 66.7859L66.7997 74.9557C65.9569 75.7986 64.5703 75.7986 63.7275 74.9557L46.5858 57.8276C43.4864 54.7146 43.4864 49.685 46.5858 46.5856C49.6852 43.4862 54.7284 43.4862 57.8278 46.5856L74.9695 63.7137C75.8123 64.5565 75.8123 65.9431 74.9695 66.7859ZM10.4944 62.6806C6.67453 66.5004 6.67453 72.6992 10.4944 76.519C14.3142 80.3389 20.513 80.3389 24.3328 76.519L37.2469 63.6185C36.3225 62.4087 35.5613 61.1037 34.9631 59.7443L21.2606 73.4468C19.14 75.5675 15.7008 75.5675 13.5666 73.4468C11.4323 71.3262 11.4459 67.887 13.5666 65.7528L33.5222 45.8107L30.45 42.725L10.4944 62.6806ZM39.2452 15.4831C40.1967 16.7745 40.8492 18.2698 41.1483 19.8603C44.5331 15.7006 49.6987 13.0498 55.4761 13.0498C57.5016 13.0498 59.4455 13.3761 61.267 13.9742L52.8525 22.3887C52.4447 22.7965 52.2136 23.3539 52.2136 23.9248V32.6248C52.2136 32.8831 52.2544 33.1414 52.3495 33.3725C54.7556 33.386 57.1617 33.8618 59.4319 34.7998H63.1022C63.6731 34.7998 64.2305 34.5687 64.6383 34.1609L73.0528 25.7464C73.6509 27.5679 73.9772 29.5118 73.9772 31.5373C73.9772 35.9553 72.4275 40.0062 69.8447 43.1871L72.9305 46.2729C76.3017 42.29 78.3272 37.1515 78.3272 31.5373C78.3272 27.7039 77.3892 24.1015 75.7172 20.9206C75.3909 20.3089 74.8064 19.8875 74.1131 19.7787C73.4198 19.67 72.7402 19.9011 72.2508 20.3904L62.205 30.4362H56.5772V24.8084L66.623 14.7626C67.1123 14.2732 67.3434 13.58 67.2347 12.9003C67.1259 12.2206 66.7045 11.6225 66.0928 11.2962C62.9119 9.63777 59.3095 8.6998 55.4761 8.6998C49.1278 8.6998 43.3777 11.2962 39.2452 15.4831Z" fill="#00D2E3"/>
</svg>
