<svg width="122" height="122" viewBox="0 0 122 122" fill="none" xmlns="http://www.w3.org/2000/svg">
<g clip-path="url(#clip0_10437_11598)">
<path d="M40.3313 95.6134V84.9433C40.3313 80.2541 40.1519 75.5847 39.7732 70.9153L34.4515 4.13323C34.3518 2.92118 33.3353 1.9873 32.1195 1.9873H28.8109C27.5951 1.9873 26.5786 2.92118 26.4789 4.13323L21.1573 70.9153C20.7786 75.5847 20.5992 80.2739 20.5992 84.9433V95.6134" stroke="#00D2E3" stroke-width="4" stroke-linecap="round" stroke-linejoin="round"/>
<path d="M100.644 95.6134V84.9433C100.644 80.2541 100.464 75.5847 100.085 70.9153L94.7638 4.13323C94.6642 2.92118 93.6477 1.9873 92.4318 1.9873H89.1232C87.9074 1.9873 86.8909 2.92118 86.7913 4.13323L81.4696 70.9153C81.0909 75.5847 80.9115 80.2739 80.9115 84.9433V95.6134" stroke="#00D2E3" stroke-width="4" stroke-linecap="round" stroke-linejoin="round"/>
<path d="M81.9679 64.835H39.2948" stroke="#00D2E3" stroke-width="4" stroke-linecap="round" stroke-linejoin="round"/>
<path d="M82.8648 53.5488H38.3979" stroke="#00D2E3" stroke-width="4" stroke-linecap="round" stroke-linejoin="round"/>
<path d="M98.7103 53.5488H120.515V64.8348H99.6072" stroke="#00D2E3" stroke-width="4" stroke-linecap="round" stroke-linejoin="round"/>
<path d="M21.6555 64.8348H2.50146V53.5488H22.5524" stroke="#00D2E3" stroke-width="4" stroke-linecap="round" stroke-linejoin="round"/>
<path d="M34.4515 4.13281C34.4515 4.13281 58.0104 43.0774 86.7913 4.13281" stroke="#00D2E3" stroke-width="4" stroke-linecap="round" stroke-linejoin="round"/>
<path d="M7.16547 53.5488L25.6618 14.5645" stroke="#00D2E3" stroke-width="4" stroke-linecap="round" stroke-linejoin="round"/>
<path d="M114.077 53.5488L95.601 14.5645" stroke="#00D2E3" stroke-width="4" stroke-linecap="round" stroke-linejoin="round"/>
<path d="M12.1483 95.6133H48.8021" stroke="#00D2E3" stroke-width="4" stroke-linecap="round" stroke-linejoin="round"/>
<path d="M72.4407 95.6133H109.114" stroke="#00D2E3" stroke-width="4" stroke-linecap="round" stroke-linejoin="round"/>
<path d="M29.8673 60.0264H31.0831" stroke="#00D2E3" stroke-width="4" stroke-linecap="round" stroke-linejoin="round"/>
<path d="M90.1796 60.0264H91.3954" stroke="#00D2E3" stroke-width="4" stroke-linecap="round" stroke-linejoin="round"/>
</g>
<defs>
<clipPath id="clip0_10437_11598">
<rect width="122" height="122" fill="white"/>
</clipPath>
</defs>
</svg>
