<svg width="102" height="102" viewBox="0 0 102 102" fill="none" xmlns="http://www.w3.org/2000/svg">
<path d="M66.4503 65.0596C66.241 65.0595 66.0337 65.1007 65.8403 65.1808C65.647 65.2608 65.4712 65.3782 65.3232 65.5262C65.1752 65.6742 65.0578 65.85 64.9778 66.0434C64.8977 66.2367 64.8565 66.444 64.8566 66.6533V68.2471C64.8566 68.6698 65.0245 69.0751 65.3234 69.374C65.6223 69.6729 66.0276 69.8408 66.4503 69.8408C66.873 69.8408 67.2784 69.6729 67.5773 69.374C67.8762 69.0751 68.0441 68.6698 68.0441 68.2471V66.6533C68.0441 66.444 68.0029 66.2367 67.9229 66.0434C67.8428 65.85 67.7254 65.6743 67.5774 65.5262C67.4294 65.3782 67.2537 65.2608 67.0603 65.1808C66.8669 65.1007 66.6596 65.0595 66.4503 65.0596Z" fill="#00D2E3"/>
<path d="M66.4503 71.4346C66.241 71.4345 66.0337 71.4757 65.8403 71.5558C65.647 71.6358 65.4712 71.7532 65.3232 71.9012C65.1752 72.0492 65.0578 72.225 64.9778 72.4184C64.8977 72.6117 64.8565 72.819 64.8566 73.0283V74.6221C64.8566 75.0448 65.0245 75.4501 65.3234 75.749C65.6223 76.0479 66.0276 76.2158 66.4503 76.2158C66.873 76.2158 67.2784 76.0479 67.5773 75.749C67.8762 75.4501 68.0441 75.0448 68.0441 74.6221V73.0283C68.0441 72.819 68.0029 72.6117 67.9229 72.4184C67.8428 72.225 67.7254 72.0493 67.5774 71.9012C67.4294 71.7532 67.2537 71.6358 67.0603 71.5558C66.8669 71.4757 66.6596 71.4345 66.4503 71.4346Z" fill="#00D2E3"/>
<path d="M66.4503 58.6846C66.241 58.6845 66.0337 58.7257 65.8403 58.8058C65.647 58.8858 65.4712 59.0032 65.3232 59.1512C65.1752 59.2992 65.0578 59.475 64.9778 59.6684C64.8977 59.8617 64.8565 60.069 64.8566 60.2783V61.8721C64.8566 62.2948 65.0245 62.7001 65.3234 62.999C65.6223 63.2979 66.0276 63.4658 66.4503 63.4658C66.873 63.4658 67.2784 63.2979 67.5773 62.999C67.8762 62.7001 68.0441 62.2948 68.0441 61.8721V60.2783C68.0441 60.069 68.0029 59.8617 67.9229 59.6684C67.8428 59.475 67.7254 59.2993 67.5774 59.1512C67.4294 59.0032 67.2537 58.8858 67.0603 58.8058C66.8669 58.7257 66.6596 58.6845 66.4503 58.6846Z" fill="#00D2E3"/>
<path d="M66.4503 84.1846C66.241 84.1845 66.0337 84.2257 65.8403 84.3058C65.647 84.3858 65.4712 84.5032 65.3232 84.6512C65.1752 84.7992 65.0578 84.975 64.9778 85.1684C64.8977 85.3617 64.8565 85.569 64.8566 85.7783V87.3721C64.8566 87.7948 65.0245 88.2001 65.3234 88.499C65.6223 88.7979 66.0276 88.9658 66.4503 88.9658C66.873 88.9658 67.2784 88.7979 67.5773 88.499C67.8762 88.2001 68.0441 87.7948 68.0441 87.3721V85.7783C68.0441 85.569 68.0029 85.3617 67.9229 85.1684C67.8428 84.975 67.7254 84.7993 67.5774 84.6512C67.4294 84.5032 67.2537 84.3858 67.0603 84.3058C66.8669 84.2257 66.6596 84.1845 66.4503 84.1846Z" fill="#00D2E3"/>
<path d="M66.4503 77.8096C66.241 77.8095 66.0337 77.8507 65.8403 77.9308C65.647 78.0108 65.4712 78.1282 65.3232 78.2762C65.1752 78.4242 65.0578 78.6 64.9778 78.7934C64.8977 78.9867 64.8565 79.194 64.8566 79.4033V80.9971C64.8566 81.4198 65.0245 81.8251 65.3234 82.124C65.6223 82.4229 66.0276 82.5908 66.4503 82.5908C66.873 82.5908 67.2784 82.4229 67.5773 82.124C67.8762 81.8251 68.0441 81.4198 68.0441 80.9971V79.4033C68.0441 79.194 68.0029 78.9867 67.9229 78.7934C67.8428 78.6 67.7254 78.4243 67.5774 78.2762C67.4294 78.1282 67.2537 78.0108 67.0603 77.9308C66.8669 77.8507 66.6596 77.8095 66.4503 77.8096Z" fill="#00D2E3"/>
<path d="M95.6203 36.0151C95.6159 34.6978 95.0885 33.4363 94.1542 32.5077L87.0819 25.4354C86.758 25.1107 86.3203 24.9251 85.8617 24.918C85.4031 24.9109 84.9598 25.0828 84.626 25.3973C83.8013 26.1553 82.7155 26.5652 81.5956 26.5413C80.4757 26.5174 79.4084 26.0615 78.6168 25.269C77.8252 24.4765 77.3705 23.4086 77.3479 22.2887C77.3253 21.1688 77.7364 20.0835 78.4954 19.2597C78.8103 18.9285 78.9831 18.4871 78.9767 18.0301C78.9703 17.5731 78.7853 17.1368 78.4611 16.8146L71.3826 9.73608C70.9227 9.27282 70.3761 8.9047 69.7739 8.65274C69.1717 8.40077 68.5257 8.26991 67.873 8.26761H67.8465C67.1986 8.26525 66.5568 8.39149 65.958 8.63902C65.3593 8.88655 64.8157 9.25045 64.3586 9.70962L22.5086 51.5596H11.3259C10.0093 51.5659 8.74893 52.0942 7.82137 53.0286C6.89381 53.9631 6.37479 55.2273 6.37819 56.5439V66.5554C6.37612 67.0137 6.55432 67.4544 6.87433 67.7824C7.19435 68.1104 7.63051 68.2995 8.08869 68.3087C9.20733 68.3557 10.2646 68.8332 11.0395 69.6412C11.8145 70.4493 12.2473 71.5256 12.2475 72.6452C12.2477 73.7649 11.8153 74.8413 11.0406 75.6497C10.266 76.458 9.20891 76.9358 8.09028 76.9833C7.63173 76.9922 7.19512 77.1813 6.87477 77.5095C6.55442 77.8377 6.37605 78.2787 6.37819 78.7374V88.7489C6.37493 90.0654 6.89403 91.3295 7.8216 92.2638C8.74917 93.1981 10.0095 93.7263 11.326 93.7325H85.5879C86.9044 93.7263 88.1647 93.1981 89.0923 92.2638C90.0198 91.3295 90.5389 90.0654 90.5357 88.7489V78.7374C90.5379 78.279 90.3598 77.8381 90.0397 77.5099C89.7197 77.1817 89.2835 76.9926 88.8252 76.9833C87.7065 76.9363 86.6493 76.4588 85.8743 75.6508C85.0994 74.8427 84.6666 73.7664 84.6664 72.6468C84.6662 71.5271 85.0986 70.4507 85.8732 69.6423C86.6479 68.834 87.705 68.3562 88.8236 68.3087C89.282 68.2998 89.7185 68.1109 90.0389 67.7829C90.3592 67.4548 90.5376 67.0139 90.5356 66.5554V56.5439C90.539 55.2273 90.02 53.963 89.0924 53.0286C88.1649 52.0942 86.9045 51.5658 85.5878 51.5596H82.1497L94.1791 39.5302C94.6415 39.0699 95.0072 38.5218 95.2547 37.9182C95.5022 37.3145 95.6265 36.6675 95.6203 36.0151ZM87.3481 56.5439V65.2885C85.681 65.6684 84.1923 66.6033 83.126 67.9399C82.0596 69.2766 81.4789 70.9357 81.4789 72.6456C81.4789 74.3555 82.0596 76.0146 83.126 77.3513C84.1923 78.6879 85.681 79.6228 87.3481 80.0027V88.7489C87.3524 89.2204 87.1695 89.6743 86.8395 90.0111C86.5094 90.3478 86.0593 90.5398 85.5878 90.545H11.3259C10.8544 90.5399 10.4043 90.3478 10.0742 90.0111C9.74421 89.6743 9.56128 89.2204 9.56561 88.7489V80.0035C11.2327 79.6236 12.7214 78.6887 13.7877 77.3521C14.854 76.0154 15.4348 74.3563 15.4348 72.6464C15.4348 70.9365 14.854 69.2774 13.7877 67.9407C12.7214 66.6041 11.2327 65.6692 9.56561 65.2893V56.5439C9.56127 56.0724 9.74417 55.6183 10.0742 55.2815C10.4042 54.9446 10.8544 54.7524 11.3259 54.7471H64.8566V55.4972C64.8566 55.9199 65.0245 56.3253 65.3234 56.6242C65.6223 56.9231 66.0277 57.091 66.4504 57.091C66.873 57.091 67.2784 56.9231 67.5773 56.6242C67.8762 56.3253 68.0441 55.9199 68.0441 55.4972V54.7471H85.5878C86.0593 54.7524 86.5095 54.9446 86.8395 55.2815C87.1695 55.6183 87.3524 56.0724 87.3481 56.5439ZM91.9254 37.2757L77.6424 51.5596H27.016L51.9536 26.6225L52.4832 27.1521C52.6312 27.3001 52.8069 27.4175 53.0002 27.4976C53.1936 27.5777 53.4008 27.6189 53.6101 27.6189C53.8193 27.6189 54.0266 27.5777 54.2199 27.4976C54.4133 27.4175 54.5889 27.3001 54.7369 27.1522C54.8849 27.0042 55.0023 26.8285 55.0824 26.6352C55.1624 26.4418 55.2037 26.2346 55.2037 26.0253C55.2037 25.816 55.1624 25.6088 55.0824 25.4155C55.0023 25.2221 54.8849 25.0465 54.7369 24.8985L54.2072 24.3688L66.6122 11.9641C66.9493 11.6451 67.3934 11.4636 67.8573 11.4551C68.3347 11.4577 68.7915 11.6497 69.1273 11.989L75.3109 18.1726C74.4011 19.6201 74.0097 21.3336 74.201 23.0326C74.3923 24.7316 75.1549 26.3152 76.3638 27.5242C77.5728 28.7331 79.1564 29.4957 80.8554 29.687C82.5544 29.8783 84.2679 29.4869 85.7154 28.5771L91.9006 34.7613C92.2394 35.0978 92.4313 35.5546 92.4345 36.0321C92.4364 36.2628 92.3923 36.4916 92.305 36.7051C92.2176 36.9186 92.0886 37.1126 91.9254 37.2757Z" fill="#00D2E3"/>
<path d="M71.641 41.8024C71.4932 41.6536 71.3175 41.5355 71.1239 41.4548C70.9304 41.3741 70.7228 41.3324 70.5131 41.332C70.3034 41.3317 70.0957 41.3728 69.9019 41.4529C69.7081 41.5329 69.532 41.6505 69.3837 41.7988C69.2355 41.9471 69.1179 42.1232 69.0378 42.317C68.9577 42.5108 68.9167 42.7185 68.917 42.9282C68.9173 43.1379 68.9591 43.3454 69.0398 43.539C69.1205 43.7325 69.2386 43.9082 69.3873 44.056L70.5141 45.1836C70.6619 45.3324 70.8376 45.4505 71.0312 45.5312C71.2247 45.6119 71.4323 45.6536 71.642 45.654C71.8517 45.6543 72.0594 45.6133 72.2532 45.5332C72.447 45.4531 72.6231 45.3355 72.7714 45.1872C72.9197 45.0389 73.0372 44.8629 73.1173 44.6691C73.1974 44.4753 73.2384 44.2676 73.2381 44.0579C73.2378 43.8482 73.1961 43.6406 73.1154 43.447C73.0346 43.2535 72.9165 43.0778 72.7678 42.93L71.641 41.8024Z" fill="#00D2E3"/>
<path d="M76.1498 46.3105C76.0019 46.1625 75.8262 46.0451 75.6329 45.9651C75.4395 45.885 75.2323 45.8438 75.023 45.8438C74.8137 45.8437 74.6065 45.885 74.4132 45.9651C74.2198 46.0451 74.0442 46.1625 73.8962 46.3105C73.7482 46.4585 73.6308 46.6341 73.5507 46.8275C73.4707 47.0208 73.4294 47.2281 73.4294 47.4373C73.4294 47.6466 73.4707 47.8538 73.5507 48.0472C73.6308 48.2405 73.7482 48.4162 73.8962 48.5642L75.023 49.6909C75.171 49.8389 75.3466 49.9563 75.54 50.0364C75.7333 50.1165 75.9405 50.1577 76.1498 50.1577C76.3591 50.1577 76.5663 50.1165 76.7596 50.0364C76.953 49.9563 77.1287 49.8389 77.2766 49.6909C77.4246 49.543 77.542 49.3673 77.6221 49.1739C77.7022 48.9806 77.7434 48.7734 77.7434 48.5641C77.7434 48.3548 77.7022 48.1476 77.6221 47.9543C77.542 47.7609 77.4246 47.5853 77.2766 47.4373L76.1498 46.3105Z" fill="#00D2E3"/>
<path d="M67.1336 37.2955C66.8345 36.9976 66.4295 36.8306 66.0075 36.8311C65.5854 36.8315 65.1807 36.9994 64.8823 37.2978C64.5838 37.5963 64.416 38.0009 64.4155 38.423C64.4151 38.8451 64.5821 39.2501 64.88 39.5491L66.0067 40.6759C66.1547 40.8239 66.3304 40.9413 66.5237 41.0214C66.7171 41.1014 66.9243 41.1427 67.1336 41.1427C67.3428 41.1427 67.5501 41.1014 67.7434 41.0214C67.9367 40.9413 68.1124 40.8239 68.2604 40.6759C68.4084 40.5279 68.5258 40.3523 68.6058 40.1589C68.6859 39.9656 68.7271 39.7584 68.7271 39.5491C68.7271 39.3398 68.6859 39.1326 68.6058 38.9393C68.5258 38.7459 68.4084 38.5702 68.2604 38.4223L67.1336 37.2955Z" fill="#00D2E3"/>
<path d="M58.1174 28.2802C57.8185 27.9814 57.4132 27.8135 56.9905 27.8135C56.5679 27.8135 56.1626 27.9814 55.8637 28.2802C55.5649 28.5791 55.397 28.9844 55.397 29.4071C55.397 29.8297 55.5649 30.235 55.8637 30.5339L56.9905 31.6607C57.2894 31.9595 57.6947 32.1274 58.1173 32.1274C58.54 32.1274 58.9453 31.9595 59.2442 31.6607C59.543 31.3618 59.7109 30.9565 59.7109 30.5338C59.7109 30.1112 59.543 29.7059 59.2442 29.407L58.1174 28.2802Z" fill="#00D2E3"/>
<path d="M62.6263 32.7871C62.3274 32.4882 61.9221 32.3203 61.4995 32.3203C61.0768 32.3203 60.6715 32.4882 60.3726 32.7871C60.0738 33.0859 59.9059 33.4912 59.9059 33.9139C59.9059 34.3365 60.0738 34.7419 60.3726 35.0407L61.4994 36.1675C61.7983 36.4664 62.2036 36.6343 62.6262 36.6343C63.0489 36.6343 63.4542 36.4664 63.7531 36.1676C64.052 35.8687 64.2199 35.4634 64.2199 35.0408C64.2199 34.6181 64.052 34.2128 63.7532 33.9139L62.6263 32.7871Z" fill="#00D2E3"/>
<path d="M30.4592 73.4998C29.1121 72.8703 28.3208 71.9734 26.7039 71.8253C24.6283 71.6354 21.4237 72.559 21.0372 74.9835C20.8969 75.8637 21.1573 76.7495 21.7513 77.4141L24.3207 80.2844C26.2152 82.3961 28.9172 83.6071 31.7341 83.6071C33.4126 83.6071 35.0839 83.1744 36.567 82.3552C39.4678 80.7536 53.939 72.7627 53.9571 72.7526L54.0172 72.7189C55.8468 71.6747 56.5651 69.3454 55.652 67.4159C55.2285 66.5208 54.576 65.8235 53.713 65.3431C51.5158 64.1202 48.5456 64.283 45.7679 65.7796C45.2634 66.0514 43.726 67.0932 43.1352 66.7241C43.1345 66.7236 40.0264 64.7789 40.0264 64.7789C38.3321 63.7186 36.1571 63.7427 34.4862 64.8397C33.5317 65.4666 32.4925 66.0269 32.3275 67.2814C32.2338 67.9934 32.4542 68.7092 32.9318 69.2448L35.076 71.6511C33.7304 72.4628 31.9236 74.1841 30.4592 73.4998ZM32.737 76.8181C32.7546 76.8084 32.7722 76.7983 32.7894 76.788L37.493 73.9525C38.1267 73.5645 38.5526 72.9204 38.6613 72.1854C38.77 71.4504 38.5489 70.7107 38.0546 70.156L35.9132 67.753L36.2527 67.5302C36.8763 67.1207 37.687 67.1121 38.3188 67.5074L41.4272 69.4522C42.5383 70.1474 43.9065 70.2232 45.0877 69.6554C45.3423 69.5329 45.5797 69.4279 45.8171 69.3226C46.2635 69.1245 46.7254 68.9196 47.2937 68.6134C48.6885 67.8623 50.6955 67.3469 52.1472 68.1554H52.1474C52.4231 68.3088 52.6066 68.5053 52.7426 68.7926C52.9372 69.2042 52.7933 69.7115 52.4216 69.9237C52.4194 69.925 52.4014 69.9349 52.3995 69.9362C52.3191 69.9805 35.0113 79.5378 35.0113 79.5378C34.0032 80.0942 32.8699 80.3886 31.7341 80.3886C29.8301 80.3886 28.0012 79.5672 26.7166 78.1351L24.3707 75.5148L24.4882 75.4469C25.5665 74.8237 26.9261 74.8774 27.952 75.5836L28.7881 76.1592C28.9314 76.2576 29.0623 76.3575 29.0943 76.3854C30.0886 77.2983 31.553 77.4725 32.737 76.8181Z" fill="#00D2E3"/>
</svg>
